# 3ds Max Wavefront OBJ Exporter v0.97b - (c)2007 guruware
# File Created: 09.06.2014 15:47:57

mtllib 1_bottom.mtl

#
# object Box001
#

v  -49.8827 0.0000 -29.6793
v  -49.8827 0.0000 30.3207
v  50.1173 0.0000 -29.6793
v  50.1173 0.0000 30.3207
v  50.1173 -2.0000 30.3207
v  -49.8827 -2.0000 30.3207
v  50.1173 -2.0000 -29.6793
v  -49.8827 -2.0000 -29.6793
# 8 vertices

vn 0.0000 1.0000 -0.0000
vn 0.0000 -1.0000 -0.0000
vn 0.0000 0.0000 1.0000
vn 1.0000 0.0000 -0.0000
vn 0.0000 0.0000 -1.0000
vn -1.0000 0.0000 -0.0000
# 6 vertex normals

vt 0.0000 1.0000 0.0000
vt 0.0000 0.0000 0.0000
vt 1.0000 1.0000 0.0000
vt 1.0000 0.0000 0.0000
# 4 texture coords

g Box001
usemtl 01___Default
s 2
f 1/1/1 2/2/1 3/3/1 
f 4/4/1 3/3/1 2/2/1 
s 4
f 5/2/2 6/4/2 7/1/2 
f 8/3/2 7/1/2 6/4/2 
s 8
f 4/4/3 2/2/3 5/3/3 
f 6/1/3 5/3/3 2/2/3 
s 16
f 3/4/4 4/2/4 7/3/4 
f 5/1/4 7/3/4 4/2/4 
s 32
f 1/4/5 3/2/5 8/3/5 
f 7/1/5 8/3/5 3/2/5 
s 64
f 2/4/6 1/2/6 6/3/6 
f 8/1/6 6/3/6 1/2/6 
# 12 faces

