# 3ds Max Wavefront OBJ Exporter v0.97b - (c)2007 guruware
# File Created: 09.06.2014 15:50:27

mtllib 1_cornerDir.mtl

#
# object Prism001
#

v  41.4520 5.0000 21.5207
v  48.1173 5.0000 28.3207
v  48.1173 5.0000 8.3207
v  28.1213 5.0000 27.9207
v  48.1173 0.0000 28.3207
v  48.1173 0.0000 8.3207
v  28.1213 0.0000 27.9207
v  41.4520 0.0000 21.5207
# 8 vertices

vn 0.0000 1.0000 -0.0000
vn 1.0000 0.0000 -0.0000
vn -0.7000 0.0000 -0.7141
vn -0.0200 0.0000 0.9998
vn 0.0000 -1.0000 -0.0000
# 5 vertex normals

vt 0.3400 0.3333 0.0000
vt -0.0000 0.0000 0.0000
vt 1.0000 0.0000 0.0000
vt 0.0200 1.0000 0.0000
vt 0.0000 1.0000 0.0000
vt 0.0000 0.0000 0.0000
vt 0.2941 0.0000 0.0000
vt 0.2941 1.0000 0.0000
vt 0.7059 0.0000 0.0000
vt 0.7059 1.0000 0.0000
vt 1.0000 1.0000 0.0000
vt 0.6600 0.6667 0.0000
vt 0.9800 0.0000 0.0000
# 13 texture coords

g Prism001
usemtl 01___Default
s 1
f 1/1/1 2/2/1 3/3/1 
f 1/1/1 3/3/1 4/4/1 
f 1/1/1 4/4/1 2/2/1 
s 2
f 2/5/2 5/6/2 6/7/2 
f 2/5/2 6/7/2 3/8/2 
s 4
f 3/8/3 6/7/3 7/9/3 
f 3/8/3 7/9/3 4/10/3 
s 8
f 4/10/4 7/9/4 5/3/4 
f 4/10/4 5/3/4 2/11/4 
s 1
f 5/11/5 8/12/5 6/5/5 
f 6/5/5 8/12/5 7/13/5 
f 7/13/5 8/12/5 5/11/5 
# 12 faces

