# 3ds Max Wavefront OBJ Exporter v0.97b - (c)2007 guruware
# File Created: 09.06.2014 15:51:14

mtllib 1_cornerCorredorEsq.mtl

#
# object Prism004
#

v  -29.8879 2.0000 -16.9566
v  -33.0968 2.0000 -18.7524
v  -18.9506 2.0000 -18.7524
v  -33.2050 2.0000 -12.9381
v  -18.9506 0.0000 -18.7524
v  -33.0968 0.0000 -18.7524
v  -33.2050 0.0000 -12.9381
v  -29.8879 0.0000 -16.9566
# 8 vertices

vn 0.0000 1.0000 -0.0000
vn 0.0000 0.0000 -1.0000
vn 0.3777 0.0000 0.9259
vn -0.9998 0.0000 -0.0186
vn 0.0000 -1.0000 -0.0000
# 5 vertex normals

vt 0.3370 0.3333 0.0000
vt 0.0110 0.0000 0.0000
vt 1.0000 0.0000 0.0000
vt 0.0000 1.0000 0.0000
vt 0.2527 0.0000 0.0000
vt 0.2527 1.0000 0.0000
vt 0.0000 0.0000 0.0000
vt 0.6701 0.0000 0.0000
vt 0.6701 1.0000 0.0000
vt 1.0000 1.0000 0.0000
vt 0.9890 1.0000 0.0000
vt 0.6630 0.6667 0.0000
# 12 texture coords

g Prism004
usemtl 01___Default
s 1
f 3/3/1 2/2/1 1/1/1 
f 4/4/1 3/3/1 1/1/1 
f 2/2/1 4/4/1 1/1/1 
s 2
f 2/4/2 3/6/2 5/5/2 
f 5/5/2 6/7/2 2/4/2 
s 4
f 3/6/3 4/9/3 7/8/3 
f 7/8/3 5/5/3 3/6/3 
s 8
f 4/9/4 2/10/4 6/3/4 
f 6/3/4 7/8/4 4/9/4 
s 1
f 5/4/5 8/12/5 6/11/5 
f 7/3/5 8/12/5 5/4/5 
f 6/11/5 8/12/5 7/3/5 
# 12 faces

