# 3ds Max Wavefront OBJ Exporter v0.97b - (c)2007 guruware
# File Created: 09.06.2014 22:24:50

mtllib 1_obstaculo1.mtl

#
# object ChamferCyl001
#

v  23.2938 4.5519 -5.0166
v  28.1453 4.5519 -5.0166
v  27.4953 4.5519 -7.4423
v  25.7196 4.5519 -9.2181
v  23.2938 4.5519 -9.8680
v  20.8681 4.5519 -9.2181
v  19.0924 4.5519 -7.4423
v  18.4424 4.5519 -5.0166
v  19.0924 4.5519 -2.5909
v  20.8681 4.5519 -0.8151
v  23.2938 4.5519 -0.1652
v  25.7196 4.5519 -0.8151
v  27.4953 4.5519 -2.5909
v  28.8437 4.2626 -5.0166
v  28.1002 4.2626 -7.7915
v  26.0688 4.2626 -9.8229
v  23.2938 4.2626 -10.5665
v  20.5189 4.2626 -9.8229
v  18.4875 4.2626 -7.7915
v  17.7440 4.2626 -5.0166
v  18.4875 4.2626 -2.2417
v  20.5189 4.2626 -0.2103
v  23.2938 4.2626 0.5333
v  26.0688 4.2626 -0.2103
v  28.1002 4.2626 -2.2416
v  29.1330 3.5642 -5.0166
v  28.3507 3.5642 -7.9362
v  26.2134 3.5642 -10.0735
v  23.2938 3.5642 -10.8558
v  20.3743 3.5642 -10.0735
v  18.2370 3.5642 -7.9362
v  17.4547 3.5642 -5.0166
v  18.2370 3.5642 -2.0970
v  20.3743 3.5642 0.0403
v  23.2938 3.5642 0.8226
v  26.2134 3.5642 0.0403
v  28.3507 3.5642 -2.0970
v  29.1330 2.7054 -5.0166
v  28.3507 2.7054 -7.9362
v  26.2134 2.7054 -10.0735
v  23.2938 2.7054 -10.8558
v  20.3743 2.7054 -10.0735
v  18.2370 2.7054 -7.9362
v  17.4547 2.7054 -5.0166
v  18.2370 2.7054 -2.0970
v  20.3743 2.7054 0.0403
v  23.2938 2.7054 0.8226
v  26.2134 2.7054 0.0403
v  28.3507 2.7054 -2.0970
v  29.1330 1.8466 -5.0166
v  28.3507 1.8466 -7.9362
v  26.2134 1.8466 -10.0735
v  23.2938 1.8466 -10.8558
v  20.3743 1.8466 -10.0735
v  18.2370 1.8466 -7.9362
v  17.4547 1.8466 -5.0166
v  18.2370 1.8466 -2.0970
v  20.3743 1.8466 0.0403
v  23.2938 1.8466 0.8226
v  26.2134 1.8466 0.0403
v  28.3507 1.8466 -2.0970
v  29.1330 0.9878 -5.0166
v  28.3507 0.9878 -7.9362
v  26.2134 0.9878 -10.0735
v  23.2938 0.9878 -10.8558
v  20.3743 0.9878 -10.0735
v  18.2370 0.9878 -7.9362
v  17.4547 0.9878 -5.0166
v  18.2370 0.9878 -2.0970
v  20.3743 0.9878 0.0403
v  23.2938 0.9878 0.8226
v  26.2134 0.9878 0.0403
v  28.3507 0.9878 -2.0970
v  28.8437 0.2893 -5.0166
v  28.1002 0.2893 -7.7915
v  26.0688 0.2893 -9.8229
v  23.2938 0.2893 -10.5665
v  20.5189 0.2893 -9.8229
v  18.4875 0.2893 -7.7915
v  17.7440 0.2893 -5.0166
v  18.4875 0.2893 -2.2417
v  20.5189 0.2893 -0.2103
v  23.2938 0.2893 0.5333
v  26.0688 0.2893 -0.2103
v  28.1002 0.2893 -2.2416
v  28.1453 0.0000 -5.0166
v  27.4953 0.0000 -7.4423
v  25.7196 0.0000 -9.2181
v  23.2938 0.0000 -9.8680
v  20.8681 0.0000 -9.2181
v  19.0924 0.0000 -7.4423
v  18.4424 0.0000 -5.0166
v  19.0924 0.0000 -2.5909
v  20.8681 0.0000 -0.8151
v  23.2938 0.0000 -0.1652
v  25.7196 0.0000 -0.8151
v  27.4953 0.0000 -2.5909
v  23.2938 0.0000 -5.0166
# 98 vertices

vn 0.0000 1.0000 -0.0000
vn 0.2259 0.9741 0.0000
vn 0.1957 0.9741 -0.1130
vn 0.1130 0.9741 -0.1957
vn -0.0000 0.9741 -0.2259
vn -0.1130 0.9741 -0.1957
vn -0.1957 0.9741 -0.1130
vn -0.2259 0.9741 -0.0000
vn -0.1957 0.9741 0.1130
vn -0.1130 0.9741 0.1957
vn -0.0000 0.9741 0.2259
vn 0.1130 0.9741 0.1957
vn 0.1957 0.9741 0.1130
vn 0.7362 0.6768 0.0000
vn 0.6375 0.6768 -0.3681
vn 0.3681 0.6768 -0.6375
vn -0.0000 0.6768 -0.7362
vn -0.3681 0.6768 -0.6375
vn -0.6375 0.6768 -0.3681
vn -0.7362 0.6768 -0.0000
vn -0.6375 0.6768 0.3681
vn -0.3681 0.6768 0.6375
vn -0.0000 0.6768 0.7362
vn 0.3681 0.6768 0.6375
vn 0.6375 0.6768 0.3681
vn 0.9819 0.1892 0.0000
vn 0.8504 0.1892 -0.4910
vn 0.4910 0.1892 -0.8504
vn -0.0000 0.1892 -0.9819
vn -0.4910 0.1892 -0.8504
vn -0.8504 0.1892 -0.4910
vn -0.9819 0.1892 -0.0000
vn -0.8504 0.1892 0.4910
vn -0.4910 0.1892 0.8504
vn -0.0000 0.1892 0.9819
vn 0.4910 0.1892 0.8504
vn 0.8504 0.1892 0.4910
vn 1.0000 0.0000 0.0000
vn 0.8660 0.0000 -0.5000
vn 0.5000 0.0000 -0.8660
vn -0.0000 0.0000 -1.0000
vn -0.5000 0.0000 -0.8660
vn -0.8660 0.0000 -0.5000
vn -1.0000 0.0000 -0.0000
vn -0.8660 0.0000 0.5000
vn -0.5000 0.0000 0.8660
vn -0.0000 0.0000 1.0000
vn 0.5000 0.0000 0.8660
vn 0.8660 0.0000 0.5000
vn 0.9819 -0.1892 0.0000
vn 0.8504 -0.1892 -0.4910
vn 0.4910 -0.1892 -0.8504
vn -0.0000 -0.1892 -0.9819
vn -0.4910 -0.1892 -0.8504
vn -0.8504 -0.1892 -0.4910
vn -0.9819 -0.1892 -0.0000
vn -0.8504 -0.1892 0.4910
vn -0.4910 -0.1892 0.8504
vn -0.0000 -0.1892 0.9819
vn 0.4910 -0.1892 0.8504
vn 0.8504 -0.1892 0.4910
vn 0.7362 -0.6768 0.0000
vn 0.6375 -0.6768 -0.3681
vn 0.3681 -0.6768 -0.6375
vn -0.0000 -0.6768 -0.7362
vn -0.3681 -0.6768 -0.6375
vn -0.6375 -0.6768 -0.3681
vn -0.7362 -0.6768 -0.0000
vn -0.6375 -0.6768 0.3681
vn -0.3681 -0.6768 0.6375
vn -0.0000 -0.6768 0.7362
vn 0.3681 -0.6768 0.6375
vn 0.6375 -0.6768 0.3681
vn 0.2259 -0.9741 0.0000
vn 0.1957 -0.9741 -0.1130
vn 0.1130 -0.9741 -0.1957
vn -0.0000 -0.9741 -0.2259
vn -0.1130 -0.9741 -0.1957
vn -0.1957 -0.9741 -0.1130
vn -0.2259 -0.9741 -0.0000
vn -0.1957 -0.9741 0.1130
vn -0.1130 -0.9741 0.1957
vn -0.0000 -0.9741 0.2259
vn 0.1130 -0.9741 0.1957
vn 0.1957 -0.9741 0.1130
vn 0.0000 -1.0000 -0.0000
# 86 vertex normals

vt 0.5000 0.5000 0.0000
vt 0.9154 0.5000 0.0000
vt 0.8598 0.7077 0.0000
vt 0.7077 0.8598 0.0000
vt 0.5000 0.9154 0.0000
vt 0.2923 0.8598 0.0000
vt 0.1402 0.7077 0.0000
vt 0.0846 0.5000 0.0000
vt 0.1402 0.2923 0.0000
vt 0.2923 0.1402 0.0000
vt 0.5000 0.0846 0.0000
vt 0.7077 0.1402 0.0000
vt 0.8598 0.2923 0.0000
vt 0.9752 0.5000 0.0000
vt 0.9116 0.7376 0.0000
vt 0.7376 0.9116 0.0000
vt 0.5000 0.9752 0.0000
vt 0.2624 0.9116 0.0000
vt 0.0884 0.7376 0.0000
vt 0.0248 0.5000 0.0000
vt 0.0884 0.2624 0.0000
vt 0.2624 0.0884 0.0000
vt 0.5000 0.0248 0.0000
vt 0.7376 0.0884 0.0000
vt 0.9116 0.2624 0.0000
vt 1.0000 0.5000 0.0000
vt 0.9330 0.7500 0.0000
vt 0.7500 0.9330 0.0000
vt 0.5000 1.0000 0.0000
vt 0.2500 0.9330 0.0000
vt 0.0670 0.7500 0.0000
vt 0.0000 0.5000 0.0000
vt 0.0670 0.2500 0.0000
vt 0.2500 0.0670 0.0000
vt 0.5000 0.0000 0.0000
vt 0.7500 0.0670 0.0000
vt 0.9330 0.2500 0.0000
vt 0.0000 1.0000 0.0000
vt 0.0000 0.6667 0.0000
vt 0.0833 0.6667 0.0000
vt 0.0833 1.0000 0.0000
vt 0.1667 0.6667 0.0000
vt 0.1667 1.0000 0.0000
vt 0.2500 0.6667 0.0000
vt 0.2500 1.0000 0.0000
vt 0.3333 0.6667 0.0000
vt 0.3333 1.0000 0.0000
vt 0.4167 0.6667 0.0000
vt 0.4167 1.0000 0.0000
vt 0.5000 0.6667 0.0000
vt 0.5833 0.6667 0.0000
vt 0.5833 1.0000 0.0000
vt 0.6667 0.6667 0.0000
vt 0.6667 1.0000 0.0000
vt 0.7500 0.6667 0.0000
vt 0.7500 1.0000 0.0000
vt 0.8333 0.6667 0.0000
vt 0.8333 1.0000 0.0000
vt 0.9167 0.6667 0.0000
vt 0.9167 1.0000 0.0000
vt 1.0000 0.6667 0.0000
vt 1.0000 1.0000 0.0000
vt 0.0000 0.3333 0.0000
vt 0.0833 0.3333 0.0000
vt 0.1667 0.3333 0.0000
vt 0.2500 0.3333 0.0000
vt 0.3333 0.3333 0.0000
vt 0.4167 0.3333 0.0000
vt 0.5000 0.3333 0.0000
vt 0.5833 0.3333 0.0000
vt 0.6667 0.3333 0.0000
vt 0.7500 0.3333 0.0000
vt 0.8333 0.3333 0.0000
vt 0.9167 0.3333 0.0000
vt 1.0000 0.3333 0.0000
vt 0.0000 0.0000 0.0000
vt 0.0833 0.0000 0.0000
vt 0.1667 0.0000 0.0000
vt 0.2500 0.0000 0.0000
vt 0.3333 0.0000 0.0000
vt 0.4167 0.0000 0.0000
vt 0.5833 0.0000 0.0000
vt 0.6667 0.0000 0.0000
vt 0.7500 0.0000 0.0000
vt 0.8333 0.0000 0.0000
vt 0.9167 0.0000 0.0000
vt 1.0000 0.0000 0.0000
# 87 texture coords

g ChamferCyl001
usemtl 14___Default
s 4
f 1/1/1 2/2/2 3/3/3 
f 1/1/1 3/3/3 4/4/4 
f 1/1/1 4/4/4 5/5/5 
f 1/1/1 5/5/5 6/6/6 
f 1/1/1 6/6/6 7/7/7 
f 1/1/1 7/7/7 8/8/8 
f 1/1/1 8/8/8 9/9/9 
f 1/1/1 9/9/9 10/10/10 
f 1/1/1 10/10/10 11/11/11 
f 1/1/1 11/11/11 12/12/12 
f 1/1/1 12/12/12 13/13/13 
f 1/1/1 13/13/13 2/2/2 
f 2/2/2 14/14/14 15/15/15 
f 2/2/2 15/15/15 3/3/3 
f 3/3/3 15/15/15 16/16/16 
f 3/3/3 16/16/16 4/4/4 
f 4/4/4 16/16/16 17/17/17 
f 4/4/4 17/17/17 5/5/5 
f 5/5/5 17/17/17 18/18/18 
f 5/5/5 18/18/18 6/6/6 
f 6/6/6 18/18/18 19/19/19 
f 6/6/6 19/19/19 7/7/7 
f 7/7/7 19/19/19 20/20/20 
f 7/7/7 20/20/20 8/8/8 
f 8/8/8 20/20/20 21/21/21 
f 8/8/8 21/21/21 9/9/9 
f 9/9/9 21/21/21 22/22/22 
f 9/9/9 22/22/22 10/10/10 
f 10/10/10 22/22/22 23/23/23 
f 10/10/10 23/23/23 11/11/11 
f 11/11/11 23/23/23 24/24/24 
f 11/11/11 24/24/24 12/12/12 
f 12/12/12 24/24/24 25/25/25 
f 12/12/12 25/25/25 13/13/13 
f 13/13/13 25/25/25 14/14/14 
f 13/13/13 14/14/14 2/2/2 
f 14/14/14 26/26/26 27/27/27 
f 14/14/14 27/27/27 15/15/15 
f 15/15/15 27/27/27 28/28/28 
f 15/15/15 28/28/28 16/16/16 
f 16/16/16 28/28/28 29/29/29 
f 16/16/16 29/29/29 17/17/17 
f 17/17/17 29/29/29 30/30/30 
f 17/17/17 30/30/30 18/18/18 
f 18/18/18 30/30/30 31/31/31 
f 18/18/18 31/31/31 19/19/19 
f 19/19/19 31/31/31 32/32/32 
f 19/19/19 32/32/32 20/20/20 
f 20/20/20 32/32/32 33/33/33 
f 20/20/20 33/33/33 21/21/21 
f 21/21/21 33/33/33 34/34/34 
f 21/21/21 34/34/34 22/22/22 
f 22/22/22 34/34/34 35/35/35 
f 22/22/22 35/35/35 23/23/23 
f 23/23/23 35/35/35 36/36/36 
f 23/23/23 36/36/36 24/24/24 
f 24/24/24 36/36/36 37/37/37 
f 24/24/24 37/37/37 25/25/25 
f 25/25/25 37/37/37 26/26/26 
f 25/25/25 26/26/26 14/14/14 
f 26/38/26 38/39/38 39/40/39 
f 26/38/26 39/40/39 27/41/27 
f 27/41/27 39/40/39 40/42/40 
f 27/41/27 40/42/40 28/43/28 
f 28/43/28 40/42/40 41/44/41 
f 28/43/28 41/44/41 29/45/29 
f 29/45/29 41/44/41 42/46/42 
f 29/45/29 42/46/42 30/47/30 
f 30/47/30 42/46/42 43/48/43 
f 30/47/30 43/48/43 31/49/31 
f 31/49/31 43/48/43 44/50/44 
f 31/49/31 44/50/44 32/29/32 
f 32/29/32 44/50/44 45/51/45 
f 32/29/32 45/51/45 33/52/33 
f 33/52/33 45/51/45 46/53/46 
f 33/52/33 46/53/46 34/54/34 
f 34/54/34 46/53/46 47/55/47 
f 34/54/34 47/55/47 35/56/35 
f 35/56/35 47/55/47 48/57/48 
f 35/56/35 48/57/48 36/58/36 
f 36/58/36 48/57/48 49/59/49 
f 36/58/36 49/59/49 37/60/37 
f 37/60/37 49/59/49 38/61/38 
f 37/60/37 38/61/38 26/62/26 
f 38/39/38 50/63/38 51/64/39 
f 38/39/38 51/64/39 39/40/39 
f 39/40/39 51/64/39 52/65/40 
f 39/40/39 52/65/40 40/42/40 
f 40/42/40 52/65/40 53/66/41 
f 40/42/40 53/66/41 41/44/41 
f 41/44/41 53/66/41 54/67/42 
f 41/44/41 54/67/42 42/46/42 
f 42/46/42 54/67/42 55/68/43 
f 42/46/42 55/68/43 43/48/43 
f 43/48/43 55/68/43 56/69/44 
f 43/48/43 56/69/44 44/50/44 
f 44/50/44 56/69/44 57/70/45 
f 44/50/44 57/70/45 45/51/45 
f 45/51/45 57/70/45 58/71/46 
f 45/51/45 58/71/46 46/53/46 
f 46/53/46 58/71/46 59/72/47 
f 46/53/46 59/72/47 47/55/47 
f 47/55/47 59/72/47 60/73/48 
f 47/55/47 60/73/48 48/57/48 
f 48/57/48 60/73/48 61/74/49 
f 48/57/48 61/74/49 49/59/49 
f 49/59/49 61/74/49 50/75/38 
f 49/59/49 50/75/38 38/61/38 
f 50/63/38 62/76/50 63/77/51 
f 50/63/38 63/77/51 51/64/39 
f 51/64/39 63/77/51 64/78/52 
f 51/64/39 64/78/52 52/65/40 
f 52/65/40 64/78/52 65/79/53 
f 52/65/40 65/79/53 53/66/41 
f 53/66/41 65/79/53 66/80/54 
f 53/66/41 66/80/54 54/67/42 
f 54/67/42 66/80/54 67/81/55 
f 54/67/42 67/81/55 55/68/43 
f 55/68/43 67/81/55 68/35/56 
f 55/68/43 68/35/56 56/69/44 
f 56/69/44 68/35/56 69/82/57 
f 56/69/44 69/82/57 57/70/45 
f 57/70/45 69/82/57 70/83/58 
f 57/70/45 70/83/58 58/71/46 
f 58/71/46 70/83/58 71/84/59 
f 58/71/46 71/84/59 59/72/47 
f 59/72/47 71/84/59 72/85/60 
f 59/72/47 72/85/60 60/73/48 
f 60/73/48 72/85/60 73/86/61 
f 60/73/48 73/86/61 61/74/49 
f 61/74/49 73/86/61 62/87/50 
f 61/74/49 62/87/50 50/75/38 
f 62/26/50 74/14/62 75/15/63 
f 62/26/50 75/15/63 63/27/51 
f 63/27/51 75/15/63 76/16/64 
f 63/27/51 76/16/64 64/28/52 
f 64/28/52 76/16/64 77/17/65 
f 64/28/52 77/17/65 65/29/53 
f 65/29/53 77/17/65 78/18/66 
f 65/29/53 78/18/66 66/30/54 
f 66/30/54 78/18/66 79/19/67 
f 66/30/54 79/19/67 67/31/55 
f 67/31/55 79/19/67 80/20/68 
f 67/31/55 80/20/68 68/32/56 
f 68/32/56 80/20/68 81/21/69 
f 68/32/56 81/21/69 69/33/57 
f 69/33/57 81/21/69 82/22/70 
f 69/33/57 82/22/70 70/34/58 
f 70/34/58 82/22/70 83/23/71 
f 70/34/58 83/23/71 71/35/59 
f 71/35/59 83/23/71 84/24/72 
f 71/35/59 84/24/72 72/36/60 
f 72/36/60 84/24/72 85/25/73 
f 72/36/60 85/25/73 73/37/61 
f 73/37/61 85/25/73 74/14/62 
f 73/37/61 74/14/62 62/26/50 
f 74/14/62 86/2/74 87/3/75 
f 74/14/62 87/3/75 75/15/63 
f 75/15/63 87/3/75 88/4/76 
f 75/15/63 88/4/76 76/16/64 
f 76/16/64 88/4/76 89/5/77 
f 76/16/64 89/5/77 77/17/65 
f 77/17/65 89/5/77 90/6/78 
f 77/17/65 90/6/78 78/18/66 
f 78/18/66 90/6/78 91/7/79 
f 78/18/66 91/7/79 79/19/67 
f 79/19/67 91/7/79 92/8/80 
f 79/19/67 92/8/80 80/20/68 
f 80/20/68 92/8/80 93/9/81 
f 80/20/68 93/9/81 81/21/69 
f 81/21/69 93/9/81 94/10/82 
f 81/21/69 94/10/82 82/22/70 
f 82/22/70 94/10/82 95/11/83 
f 82/22/70 95/11/83 83/23/71 
f 83/23/71 95/11/83 96/12/84 
f 83/23/71 96/12/84 84/24/72 
f 84/24/72 96/12/84 97/13/85 
f 84/24/72 97/13/85 85/25/73 
f 85/25/73 97/13/85 86/2/74 
f 85/25/73 86/2/74 74/14/62 
f 86/2/74 98/1/86 87/3/75 
f 87/3/75 98/1/86 88/4/76 
f 88/4/76 98/1/86 89/5/77 
f 89/5/77 98/1/86 90/6/78 
f 90/6/78 98/1/86 91/7/79 
f 91/7/79 98/1/86 92/8/80 
f 92/8/80 98/1/86 93/9/81 
f 93/9/81 98/1/86 94/10/82 
f 94/10/82 98/1/86 95/11/83 
f 95/11/83 98/1/86 96/12/84 
f 96/12/84 98/1/86 97/13/85 
f 97/13/85 98/1/86 86/2/74 
# 192 faces

