# 3ds Max Wavefront OBJ Exporter v0.97b - (c)2007 guruware
# File Created: 25.05.2014 20:45:07

#
# object Box010
#

v  -0.1284 0.0000 5.4627
v  -0.1284 0.0000 -2.5373
v  5.8716 0.0000 -2.5373
v  5.8716 0.0000 5.4627
v  -0.1284 0.2000 5.4627
v  5.8716 0.2000 5.4627
v  5.8716 0.2000 -2.5373
v  -0.1284 0.2000 -2.5373
# 8 vertices

vn 0.0000 -1.0000 -0.0000
vn 0.0000 1.0000 -0.0000
vn 0.0000 0.0000 1.0000
vn 1.0000 0.0000 -0.0000
vn 0.0000 0.0000 -1.0000
vn -1.0000 0.0000 -0.0000
# 6 vertex normals

vt 1.0000 0.0000 0.0000
vt 1.0000 1.0000 0.0000
vt 0.0000 1.0000 0.0000
vt 0.0000 0.0000 0.0000
# 4 texture coords

g Box010
s 2
f 1/1/1 2/2/1 3/3/1 
f 3/3/1 4/4/1 1/1/1 
s 4
f 5/4/2 6/1/2 7/2/2 
f 7/2/2 8/3/2 5/4/2 
s 8
f 1/4/3 4/1/3 6/2/3 
f 6/2/3 5/3/3 1/4/3 
s 16
f 4/4/4 3/1/4 7/2/4 
f 7/2/4 6/3/4 4/4/4 
s 32
f 3/4/5 2/1/5 8/2/5 
f 8/2/5 7/3/5 3/4/5 
s 64
f 2/4/6 1/1/6 5/2/6 
f 5/2/6 8/3/6 2/4/6 
# 12 faces

#
# object Line007
#

v  1.6147 0.2025 -4.8841
v  -0.1344 0.2025 -2.4841
v  1.6147 0.2059 -2.4841
v  1.6147 -0.0053 -4.8841
v  -0.1344 -0.0053 -2.4841
v  1.6147 -0.0053 -2.4841
# 6 vertices

vn -0.0020 1.0000 -0.0014
vn -0.8082 0.0000 -0.5890
vn -0.8082 -0.0000 -0.5890
vn -0.0000 0.0000 1.0000
vn 1.0000 0.0000 0.0000
# 5 vertex normals

g Line007
s 1
f 9//7 10//7 11//7 
s off
f 12//8 13//8 10//8 
f 10//9 9//9 12//9 
f 13//10 14//10 11//10 
f 11//10 10//10 13//10 
f 14//11 12//11 9//11 
f 9//11 11//11 14//11 
# 7 faces

#
# object Line008
#

v  4.1198 0.1966 -4.8980
v  5.8689 0.1966 -2.4980
v  4.1198 0.2000 -2.4980
v  4.1198 -0.0112 -4.8980
v  5.8689 -0.0112 -2.4980
v  4.1198 -0.0112 -2.4980
# 6 vertices

vn 0.0020 1.0000 -0.0014
vn 0.8082 0.0000 -0.5890
vn 0.8082 -0.0000 -0.5890
vn 0.0000 0.0000 1.0000
vn -1.0000 0.0000 0.0000
# 5 vertex normals

g Line008
s 1
f 17//12 16//12 15//12 
s off
f 16//13 19//13 18//13 
f 18//14 15//14 16//14 
f 17//15 20//15 19//15 
f 19//15 16//15 17//15 
f 15//16 18//16 20//16 
f 20//16 17//16 15//16 
# 7 faces

#
# object Box013
#

v  1.6080 0.0000 -2.3731
v  1.6080 0.0000 -4.8841
v  4.1332 0.0000 -4.8841
v  4.1332 0.0000 -2.3731
v  1.6080 0.2000 -2.3731
v  4.1332 0.2000 -2.3731
v  4.1332 0.2000 -4.8841
v  1.6080 0.2000 -4.8841
# 8 vertices

vn 0.0000 -1.0000 -0.0000
vn 0.0000 1.0000 -0.0000
vn 0.0000 0.0000 1.0000
vn 1.0000 0.0000 -0.0000
vn 0.0000 0.0000 -1.0000
vn -1.0000 0.0000 -0.0000
# 6 vertex normals

vt 1.0000 0.0000 0.0000
vt 1.0000 1.0000 0.0000
vt 0.0000 1.0000 0.0000
vt 0.0000 0.0000 0.0000
# 4 texture coords

g Box013
s 2
f 21/5/17 22/6/17 23/7/17 
f 23/7/17 24/8/17 21/5/17 
s 4
f 25/8/18 26/5/18 27/6/18 
f 27/6/18 28/7/18 25/8/18 
s 8
f 21/8/19 24/5/19 26/6/19 
f 26/6/19 25/7/19 21/8/19 
s 16
f 24/8/20 23/5/20 27/6/20 
f 27/6/20 26/7/20 24/8/20 
s 32
f 23/8/21 22/5/21 28/6/21 
f 28/6/21 27/7/21 23/8/21 
s 64
f 22/8/22 21/5/22 25/6/22 
f 25/6/22 28/7/22 22/8/22 
# 12 faces

#
# object Box014
#

v  -0.1427 0.0000 -2.4953
v  1.6255 0.0000 -4.8878
v  1.7864 0.0000 -4.7689
v  0.0181 0.0000 -2.3765
v  -0.1427 1.0000 -2.4953
v  0.0181 1.0000 -2.3765
v  1.7864 1.0000 -4.7689
v  1.6255 1.0000 -4.8878
# 8 vertices

vn 0.0000 -1.0000 -0.0000
vn 0.0000 1.0000 -0.0000
vn -0.5944 0.0000 0.8042
vn 0.8042 0.0000 0.5944
vn 0.5944 0.0000 -0.8042
vn -0.8042 0.0000 -0.5944
# 6 vertex normals

vt 1.0000 0.0000 0.0000
vt 1.0000 1.0000 0.0000
vt 0.0000 1.0000 0.0000
vt 0.0000 0.0000 0.0000
# 4 texture coords

g Box014
s 2
f 29/9/23 30/10/23 31/11/23 
f 31/11/23 32/12/23 29/9/23 
s 4
f 33/12/24 34/9/24 35/10/24 
f 35/10/24 36/11/24 33/12/24 
s 8
f 29/12/25 32/9/25 34/10/25 
f 34/10/25 33/11/25 29/12/25 
s 16
f 32/12/26 31/9/26 35/10/26 
f 35/10/26 34/11/26 32/12/26 
s 32
f 31/12/27 30/9/27 36/10/27 
f 36/10/27 35/11/27 31/12/27 
s 64
f 30/12/28 29/9/28 33/10/28 
f 33/10/28 36/11/28 30/12/28 
# 12 faces

#
# object Box015
#

v  -0.1182 0.0000 5.4320
v  -0.1182 0.0000 -2.5680
v  0.0818 0.0000 -2.5680
v  0.0818 0.0000 5.4320
v  -0.1182 1.0000 5.4320
v  0.0818 1.0000 5.4320
v  0.0818 1.0000 -2.5680
v  -0.1182 1.0000 -2.5680
# 8 vertices

vn 0.0000 -1.0000 -0.0000
vn 0.0000 1.0000 -0.0000
vn 0.0000 0.0000 1.0000
vn 1.0000 0.0000 -0.0000
vn 0.0000 0.0000 -1.0000
vn -1.0000 0.0000 -0.0000
# 6 vertex normals

vt 1.0000 0.0000 0.0000
vt 1.0000 1.0000 0.0000
vt 0.0000 1.0000 0.0000
vt 0.0000 0.0000 0.0000
# 4 texture coords

g Box015
s 2
f 37/13/29 38/14/29 39/15/29 
f 39/15/29 40/16/29 37/13/29 
s 4
f 41/16/30 42/13/30 43/14/30 
f 43/14/30 44/15/30 41/16/30 
s 8
f 37/16/31 40/13/31 42/14/31 
f 42/14/31 41/15/31 37/16/31 
s 16
f 40/16/32 39/13/32 43/14/32 
f 43/14/32 42/15/32 40/16/32 
s 32
f 39/16/33 38/13/33 44/14/33 
f 44/14/33 43/15/33 39/16/33 
s 64
f 38/16/34 37/13/34 41/14/34 
f 41/14/34 44/15/34 38/16/34 
# 12 faces

#
# object Box016
#

v  5.6541 0.0000 5.4320
v  5.6541 0.0000 -2.5680
v  5.8541 0.0000 -2.5680
v  5.8541 0.0000 5.4320
v  5.6541 1.0000 5.4320
v  5.8541 1.0000 5.4320
v  5.8541 1.0000 -2.5680
v  5.6541 1.0000 -2.5680
# 8 vertices

vn 0.0000 -1.0000 -0.0000
vn 0.0000 1.0000 -0.0000
vn 0.0000 0.0000 1.0000
vn 1.0000 0.0000 -0.0000
vn 0.0000 0.0000 -1.0000
vn -1.0000 0.0000 -0.0000
# 6 vertex normals

vt 1.0000 0.0000 0.0000
vt 1.0000 1.0000 0.0000
vt 0.0000 1.0000 0.0000
vt 0.0000 0.0000 0.0000
# 4 texture coords

g Box016
s 2
f 45/17/35 46/18/35 47/19/35 
f 47/19/35 48/20/35 45/17/35 
s 4
f 49/20/36 50/17/36 51/18/36 
f 51/18/36 52/19/36 49/20/36 
s 8
f 45/20/37 48/17/37 50/18/37 
f 50/18/37 49/19/37 45/20/37 
s 16
f 48/20/38 47/17/38 51/18/38 
f 51/18/38 50/19/38 48/20/38 
s 32
f 47/20/39 46/17/39 52/18/39 
f 52/18/39 51/19/39 47/20/39 
s 64
f 46/20/40 45/17/40 49/18/40 
f 49/18/40 52/19/40 46/20/40 
# 12 faces

#
# object Box017
#

v  4.1472 0.0000 -4.8789
v  5.8845 0.0000 -2.4638
v  5.7222 0.0000 -2.3470
v  3.9849 0.0000 -4.7621
v  4.1472 1.0000 -4.8789
v  3.9849 1.0000 -4.7621
v  5.7222 1.0000 -2.3470
v  5.8845 1.0000 -2.4638
# 8 vertices

vn 0.0000 -1.0000 -0.0000
vn 0.0000 1.0000 -0.0000
vn -0.5840 0.0000 -0.8118
vn -0.8118 0.0000 0.5840
vn 0.5840 0.0000 0.8118
vn 0.8118 0.0000 -0.5840
# 6 vertex normals

vt 1.0000 0.0000 0.0000
vt 1.0000 1.0000 0.0000
vt 0.0000 1.0000 0.0000
vt 0.0000 0.0000 0.0000
# 4 texture coords

g Box017
s 2
f 53/21/41 54/22/41 55/23/41 
f 55/23/41 56/24/41 53/21/41 
s 4
f 57/24/42 58/21/42 59/22/42 
f 59/22/42 60/23/42 57/24/42 
s 8
f 53/24/43 56/21/43 58/22/43 
f 58/22/43 57/23/43 53/24/43 
s 16
f 56/24/44 55/21/44 59/22/44 
f 59/22/44 58/23/44 56/24/44 
s 32
f 55/24/45 54/21/45 60/22/45 
f 60/22/45 59/23/45 55/24/45 
s 64
f 54/24/46 53/21/46 57/22/46 
f 57/22/46 60/23/46 54/24/46 
# 12 faces

#
# object Box018
#

v  1.5743 0.0000 -4.6401
v  1.5743 0.0000 -4.8401
v  4.1643 0.0000 -4.8401
v  4.1643 0.0000 -4.6401
v  1.5743 1.0000 -4.6401
v  4.1643 1.0000 -4.6401
v  4.1643 1.0000 -4.8401
v  1.5743 1.0000 -4.8401
# 8 vertices

vn 0.0000 -1.0000 -0.0000
vn 0.0000 1.0000 -0.0000
vn 0.0000 0.0000 1.0000
vn 1.0000 0.0000 -0.0000
vn 0.0000 0.0000 -1.0000
vn -1.0000 0.0000 -0.0000
# 6 vertex normals

vt 1.0000 0.0000 0.0000
vt 1.0000 1.0000 0.0000
vt 0.0000 1.0000 0.0000
vt 0.0000 0.0000 0.0000
# 4 texture coords

g Box018
s 2
f 61/25/47 62/26/47 63/27/47 
f 63/27/47 64/28/47 61/25/47 
s 4
f 65/28/48 66/25/48 67/26/48 
f 67/26/48 68/27/48 65/28/48 
s 8
f 61/28/49 64/25/49 66/26/49 
f 66/26/49 65/27/49 61/28/49 
s 16
f 64/28/50 63/25/50 67/26/50 
f 67/26/50 66/27/50 64/28/50 
s 32
f 63/28/51 62/25/51 68/26/51 
f 68/26/51 67/27/51 63/28/51 
s 64
f 62/28/52 61/25/52 65/26/52 
f 65/26/52 68/27/52 62/28/52 
# 12 faces

