# 3ds Max Wavefront OBJ Exporter v0.97b - (c)2007 guruware
# File Created: 05.06.2014 12:32:47

mtllib mesa3.mtl

#
# object Box001
#

v  -49.8827 0.0000 -29.6793
v  -49.8827 0.0000 30.3207
v  50.1173 0.0000 -29.6793
v  50.1173 0.0000 30.3207
v  50.1173 -2.0000 30.3207
v  -49.8827 -2.0000 30.3207
v  50.1173 -2.0000 -29.6793
v  -49.8827 -2.0000 -29.6793
# 8 vertices

vn 0.0000 1.0000 -0.0000
vn 0.0000 -1.0000 -0.0000
vn 0.0000 0.0000 1.0000
vn 1.0000 0.0000 -0.0000
vn 0.0000 0.0000 -1.0000
vn -1.0000 0.0000 -0.0000
# 6 vertex normals

vt 0.0000 1.0000 0.0000
vt 0.0000 0.0000 0.0000
vt 1.0000 1.0000 0.0000
vt 1.0000 0.0000 0.0000
# 4 texture coords

g Box001
usemtl 01___Default
s 2
f 1/1/1 2/2/1 3/3/1 
f 4/4/1 3/3/1 2/2/1 
s 4
f 5/2/2 6/4/2 7/1/2 
f 8/3/2 7/1/2 6/4/2 
s 8
f 4/4/3 2/2/3 5/3/3 
f 6/1/3 5/3/3 2/2/3 
s 16
f 3/4/4 4/2/4 7/3/4 
f 5/1/4 7/3/4 4/2/4 
s 32
f 1/4/5 3/2/5 8/3/5 
f 7/1/5 8/3/5 3/2/5 
s 64
f 2/4/6 1/2/6 6/3/6 
f 8/1/6 6/3/6 1/2/6 
# 12 faces

#
# object Box002
#

v  -49.8827 0.0000 -27.6793
v  -49.8827 0.0000 -29.6793
v  50.1173 0.0000 -29.6793
v  50.1173 0.0000 -27.6793
v  -49.8827 5.0000 -27.6793
v  50.1173 5.0000 -27.6793
v  50.1173 5.0000 -29.6793
v  -49.8827 5.0000 -29.6793
# 8 vertices

vn 0.0000 -1.0000 -0.0000
vn 0.0000 1.0000 -0.0000
vn 0.0000 0.0000 1.0000
vn 1.0000 0.0000 -0.0000
vn 0.0000 0.0000 -1.0000
vn -1.0000 0.0000 -0.0000
# 6 vertex normals

vt 1.0000 0.0000 0.0000
vt 1.0000 1.0000 0.0000
vt 0.0000 1.0000 0.0000
vt 0.0000 0.0000 0.0000
# 4 texture coords

g Box002
usemtl 01___Default
s 2
f 9/5/7 10/6/7 11/7/7 
f 11/7/7 12/8/7 9/5/7 
s 4
f 13/8/8 14/5/8 15/6/8 
f 15/6/8 16/7/8 13/8/8 
s 8
f 9/8/9 12/5/9 14/6/9 
f 14/6/9 13/7/9 9/8/9 
s 16
f 12/8/10 11/5/10 15/6/10 
f 15/6/10 14/7/10 12/8/10 
s 32
f 11/8/11 10/5/11 16/6/11 
f 16/6/11 15/7/11 11/8/11 
s 64
f 10/8/12 9/5/12 13/6/12 
f 13/6/12 16/7/12 10/8/12 
# 12 faces

#
# object Box003
#

v  -49.8827 0.0000 30.3207
v  -49.8827 0.0000 28.3207
v  50.1173 0.0000 28.3207
v  50.1173 0.0000 30.3207
v  -49.8827 5.0000 30.3207
v  50.1173 5.0000 30.3207
v  50.1173 5.0000 28.3207
v  -49.8827 5.0000 28.3207
# 8 vertices

vn 0.0000 -1.0000 -0.0000
vn 0.0000 1.0000 -0.0000
vn 0.0000 0.0000 1.0000
vn 1.0000 0.0000 -0.0000
vn 0.0000 0.0000 -1.0000
vn -1.0000 0.0000 -0.0000
# 6 vertex normals

vt 1.0000 0.0000 0.0000
vt 1.0000 1.0000 0.0000
vt 0.0000 1.0000 0.0000
vt 0.0000 0.0000 0.0000
# 4 texture coords

g Box003
usemtl 01___Default
s 2
f 17/9/13 18/10/13 19/11/13 
f 19/11/13 20/12/13 17/9/13 
s 4
f 21/12/14 22/9/14 23/10/14 
f 23/10/14 24/11/14 21/12/14 
s 8
f 17/12/15 20/9/15 22/10/15 
f 22/10/15 21/11/15 17/12/15 
s 16
f 20/12/16 19/9/16 23/10/16 
f 23/10/16 22/11/16 20/12/16 
s 32
f 19/12/17 18/9/17 24/10/17 
f 24/10/17 23/11/17 19/12/17 
s 64
f 18/12/18 17/9/18 21/10/18 
f 21/10/18 24/11/18 18/12/18 
# 12 faces

#
# object Box004
#

v  48.1173 0.0000 28.3207
v  48.1173 0.0000 -27.6793
v  50.1173 0.0000 -27.6793
v  50.1173 0.0000 28.3207
v  48.1173 5.0000 28.3207
v  50.1173 5.0000 28.3207
v  50.1173 5.0000 -27.6793
v  48.1173 5.0000 -27.6793
# 8 vertices

vn 0.0000 -1.0000 -0.0000
vn 0.0000 1.0000 -0.0000
vn 0.0000 0.0000 1.0000
vn 1.0000 0.0000 -0.0000
vn 0.0000 0.0000 -1.0000
vn -1.0000 0.0000 -0.0000
# 6 vertex normals

vt 1.0000 0.0000 0.0000
vt 1.0000 1.0000 0.0000
vt 0.0000 1.0000 0.0000
vt 0.0000 0.0000 0.0000
# 4 texture coords

g Box004
usemtl 01___Default
s 2
f 25/13/19 26/14/19 27/15/19 
f 27/15/19 28/16/19 25/13/19 
s 4
f 29/16/20 30/13/20 31/14/20 
f 31/14/20 32/15/20 29/16/20 
s 8
f 25/16/21 28/13/21 30/14/21 
f 30/14/21 29/15/21 25/16/21 
s 16
f 28/16/22 27/13/22 31/14/22 
f 31/14/22 30/15/22 28/16/22 
s 32
f 27/16/23 26/13/23 32/14/23 
f 32/14/23 31/15/23 27/16/23 
s 64
f 26/16/24 25/13/24 29/14/24 
f 29/14/24 32/15/24 26/16/24 
# 12 faces

