# 3ds Max Wavefront OBJ Exporter v0.97b - (c)2007 guruware
# File Created: 22.05.2014 19:23:27

#
# object Box005
#

v  1.0937 0.0000 -49.9063
v  58.9063 0.0000 -49.9063
v  58.9063 0.0000 -50.0937
v  1.0937 0.0000 -50.0937
v  58.9063 10.0000 -50.0937
v  58.9063 10.0000 -49.9063
v  1.0937 10.0000 -49.9063
v  1.0937 10.0000 -50.0937
v  58.9063 1.0937 -49.0000
v  58.9063 8.9063 -49.0000
v  1.0937 8.9063 -49.0000
v  1.0937 1.0937 -49.0000
v  60.0000 1.0937 -49.9063
v  60.0000 8.9063 -49.9063
v  60.0000 8.9063 -50.0937
v  60.0000 1.0937 -50.0937
v  1.0937 1.0937 -51.0000
v  1.0937 8.9063 -51.0000
v  58.9063 8.9063 -51.0000
v  58.9063 1.0937 -51.0000
v  0.0000 1.0937 -50.0937
v  0.0000 8.9063 -50.0937
v  0.0000 8.9063 -49.9063
v  0.0000 1.0937 -49.9063
v  1.0937 0.2734 -49.8203
v  0.8658 0.4557 -49.8658
v  0.8203 0.2734 -50.0937
v  0.6380 0.6380 -49.9114
v  0.5468 0.5468 -50.0937
v  1.0937 0.5468 -49.5468
v  0.9114 0.6380 -49.6380
v  0.7291 0.7291 -49.7291
v  0.8203 0.2734 -49.9063
v  0.8658 0.4557 -50.1342
v  1.0937 0.2734 -50.1797
v  0.9114 0.6380 -50.3620
v  1.0937 0.5468 -50.4532
v  0.5468 0.5468 -49.9063
v  0.6380 0.6380 -50.0886
v  0.7291 0.7291 -50.2709
v  58.9063 0.2734 -50.1797
v  59.1342 0.4557 -50.1342
v  59.1797 0.2734 -49.9063
v  59.3620 0.6380 -50.0886
v  59.4532 0.5468 -49.9063
v  58.9063 0.5468 -50.4532
v  59.0886 0.6380 -50.3620
v  59.2709 0.7291 -50.2709
v  59.1797 0.2734 -50.0937
v  59.1342 0.4557 -49.8658
v  58.9063 0.2734 -49.8203
v  59.0886 0.6380 -49.6380
v  58.9063 0.5468 -49.5468
v  59.4532 0.5468 -50.0937
v  59.3620 0.6380 -49.9114
v  59.2709 0.7291 -49.7291
v  0.8203 9.7266 -50.0937
v  0.8658 9.5443 -49.8658
v  1.0937 9.7266 -49.8203
v  0.9114 9.3620 -49.6380
v  1.0937 9.4532 -49.5468
v  0.5468 9.4532 -50.0937
v  0.6380 9.3620 -49.9114
v  0.7291 9.2709 -49.7291
v  58.9063 9.7266 -49.8203
v  59.1342 9.5443 -49.8658
v  59.1797 9.7266 -50.0937
v  59.3620 9.3620 -49.9114
v  59.4532 9.4532 -50.0937
v  58.9063 9.4532 -49.5468
v  59.0886 9.3620 -49.6380
v  59.2709 9.2709 -49.7291
v  59.1797 9.7266 -49.9063
v  59.1342 9.5443 -50.1342
v  58.9063 9.7266 -50.1797
v  59.0886 9.3620 -50.3620
v  58.9063 9.4532 -50.4532
v  59.4532 9.4532 -49.9063
v  59.3620 9.3620 -50.0886
v  59.2709 9.2709 -50.2709
v  1.0937 9.7266 -50.1797
v  0.8658 9.5443 -50.1342
v  0.8203 9.7266 -49.9063
v  0.6380 9.3620 -50.0886
v  0.5468 9.4532 -49.9063
v  1.0937 9.4532 -50.4532
v  0.9114 9.3620 -50.3620
v  0.7291 9.2709 -50.2709
v  0.8203 1.0937 -49.2734
v  0.8658 0.8658 -49.4557
v  1.0937 0.8203 -49.2734
v  0.5468 1.0937 -49.5468
v  0.6380 0.9114 -49.6380
v  58.9063 0.8203 -49.2734
v  59.1342 0.8658 -49.4557
v  59.1797 1.0937 -49.2734
v  59.3620 0.9114 -49.6380
v  59.4532 1.0937 -49.5468
v  59.1797 8.9063 -49.2734
v  59.1342 9.1342 -49.4557
v  58.9063 9.1797 -49.2734
v  59.4532 8.9063 -49.5468
v  59.3620 9.0886 -49.6380
v  1.0937 9.1797 -49.2734
v  0.8658 9.1342 -49.4557
v  0.8203 8.9063 -49.2734
v  0.6380 9.0886 -49.6380
v  0.5468 8.9063 -49.5468
v  59.7266 1.0937 -49.8203
v  59.5443 0.8658 -49.8658
v  59.7266 0.8203 -50.0937
v  59.7266 0.8203 -49.9063
v  59.5443 0.8658 -50.1342
v  59.7266 1.0937 -50.1797
v  59.3620 0.9114 -50.3620
v  59.4532 1.0937 -50.4532
v  59.7266 8.9063 -50.1797
v  59.5443 9.1342 -50.1342
v  59.7266 9.1797 -49.9063
v  59.4532 8.9063 -50.4532
v  59.3620 9.0886 -50.3620
v  59.7266 9.1797 -50.0937
v  59.5443 9.1342 -49.8658
v  59.7266 8.9063 -49.8203
v  59.1797 1.0937 -50.7266
v  59.1342 0.8658 -50.5443
v  58.9063 0.8203 -50.7266
v  1.0937 0.8203 -50.7266
v  0.8658 0.8658 -50.5443
v  0.8203 1.0937 -50.7266
v  0.6380 0.9114 -50.3620
v  0.5468 1.0937 -50.4532
v  0.8203 8.9063 -50.7266
v  0.8658 9.1342 -50.5443
v  1.0937 9.1797 -50.7266
v  0.5468 8.9063 -50.4532
v  0.6380 9.0886 -50.3620
v  58.9063 9.1797 -50.7266
v  59.1342 9.1342 -50.5443
v  59.1797 8.9063 -50.7266
v  0.2734 1.0937 -50.1797
v  0.4557 0.8658 -50.1342
v  0.2734 0.8203 -49.9063
v  0.2734 0.8203 -50.0937
v  0.4557 0.8658 -49.8658
v  0.2734 1.0937 -49.8203
v  0.2734 8.9063 -49.8203
v  0.4557 9.1342 -49.8658
v  0.2734 9.1797 -50.0937
v  0.2734 9.1797 -49.9063
v  0.4557 9.1342 -50.1342
v  0.2734 8.9063 -50.1797
# 152 vertices

vn 0.0000 1.0000 -0.0000
vn 0.0000 -1.0000 -0.0000
vn 0.0000 0.0000 1.0000
vn -1.0000 0.0000 -0.0000
vn 0.0000 0.0000 -1.0000
vn 1.0000 0.0000 -0.0000
vn -0.5773 -0.5774 0.5774
vn -0.5774 -0.5774 0.5773
vn -0.5773 -0.5774 -0.5774
vn -0.5774 -0.5774 -0.5773
vn 0.5773 -0.5774 -0.5774
vn 0.5774 -0.5774 -0.5773
vn 0.5773 -0.5774 0.5774
vn 0.5774 -0.5774 0.5773
vn -0.5773 0.5774 0.5774
vn -0.5773 0.5774 0.5773
vn -0.5774 0.5774 0.5773
vn 0.5773 0.5774 0.5774
vn 0.5773 0.5774 0.5773
vn 0.5774 0.5774 0.5773
vn 0.5773 0.5774 -0.5774
vn 0.5773 0.5774 -0.5773
vn 0.5774 0.5774 -0.5773
vn -0.5773 0.5774 -0.5774
vn -0.5773 0.5774 -0.5773
vn -0.5774 0.5774 -0.5773
vn -0.5774 -0.5773 0.5774
vn 0.5774 -0.5773 0.5774
vn 0.5774 0.5773 0.5774
vn -0.5774 0.5773 0.5774
vn -0.5774 0.5773 0.5773
vn 0.5774 -0.5774 0.5774
vn 0.5774 -0.5773 0.5773
vn 0.5774 -0.5774 -0.5774
vn 0.5774 -0.5773 -0.5773
vn 0.5774 -0.5773 -0.5774
vn 0.5774 0.5774 -0.5774
vn 0.5774 0.5773 -0.5774
vn 0.5774 0.5773 -0.5773
vn 0.5774 0.5773 0.5773
vn -0.5774 -0.5773 -0.5774
vn -0.5774 0.5773 -0.5774
vn -0.5774 -0.5774 -0.5774
vn -0.5774 -0.5773 -0.5773
vn -0.5774 -0.5774 0.5774
vn -0.5774 -0.5773 0.5773
vn -0.5774 0.5774 0.5774
vn -0.5774 0.5773 -0.5773
vn 0.7071 0.7071 -0.0000
vn 0.0000 -0.7071 -0.7071
vn -0.7071 0.7071 -0.0000
vn 0.0000 -0.7071 0.7071
vn 0.0000 0.7071 0.7071
vn -0.7071 -0.7071 -0.0000
vn 0.0000 0.7071 -0.7071
vn 0.7071 -0.7071 -0.0000
vn 0.7071 0.0000 0.7071
vn -0.7071 0.0000 0.7071
vn 0.7071 0.0000 -0.7071
vn -0.7071 0.0000 -0.7071
# 60 vertex normals

vt 0.9818 0.4532 0.0000
vt 0.0182 0.4532 0.0000
vt 0.0182 0.5468 0.0000
vt 0.9818 0.5468 0.0000
vt 0.9818 0.1094 0.0000
vt 0.9818 0.8906 0.0000
vt 0.0182 0.8906 0.0000
vt 0.0182 0.1094 0.0000
vt 0.4532 0.1094 0.0000
vt 0.4532 0.8906 0.0000
vt 0.5468 0.8906 0.0000
vt 0.5468 0.1094 0.0000
vt 0.9818 0.2734 0.0000
vt 0.9909 0.2734 0.0000
vt 0.9909 0.5468 0.0000
vt 1.0000 0.2734 0.0000
vt 1.0000 0.5468 0.0000
vt 0.9818 0.0000 0.0000
vt 0.9909 0.0000 0.0000
vt 1.0000 0.0000 0.0000
vt 0.9909 0.4532 0.0000
vt 0.9909 0.7266 0.0000
vt 0.9818 0.7266 0.0000
vt 0.9909 1.0000 0.0000
vt 0.9818 1.0000 0.0000
vt 1.0000 0.4532 0.0000
vt 1.0000 0.7266 0.0000
vt 1.0000 1.0000 0.0000
vt 0.0182 0.7266 0.0000
vt 0.0091 0.7266 0.0000
vt 0.0091 0.4532 0.0000
vt 0.0000 0.7266 0.0000
vt 0.0000 0.4532 0.0000
vt 0.0182 1.0000 0.0000
vt 0.0091 1.0000 0.0000
vt 0.0000 1.0000 0.0000
vt 0.0091 0.5468 0.0000
vt 0.0091 0.2734 0.0000
vt 0.0182 0.2734 0.0000
vt 0.0091 0.0000 0.0000
vt 0.0182 0.0000 0.0000
vt 0.0000 0.5468 0.0000
vt 0.0000 0.2734 0.0000
vt 0.0000 0.0000 0.0000
vt 0.0091 0.1094 0.0000
vt 0.0091 0.0547 0.0000
vt 0.0182 0.0547 0.0000
vt 0.0000 0.1094 0.0000
vt 0.0000 0.0547 0.0000
vt 0.9818 0.0547 0.0000
vt 0.9909 0.0547 0.0000
vt 0.9909 0.1094 0.0000
vt 1.0000 0.0547 0.0000
vt 1.0000 0.1094 0.0000
vt 0.9909 0.8906 0.0000
vt 0.9909 0.9453 0.0000
vt 0.9818 0.9453 0.0000
vt 1.0000 0.8906 0.0000
vt 1.0000 0.9453 0.0000
vt 0.0182 0.9453 0.0000
vt 0.0091 0.9453 0.0000
vt 0.0091 0.8906 0.0000
vt 0.0000 0.9453 0.0000
vt 0.0000 0.8906 0.0000
vt 0.2734 0.1094 0.0000
vt 0.2734 0.0547 0.0000
vt 0.5468 0.0547 0.0000
vt 0.2734 0.0000 0.0000
vt 0.5468 0.0000 0.0000
vt 0.4532 0.0547 0.0000
vt 0.7266 0.0547 0.0000
vt 0.7266 0.1094 0.0000
vt 0.4532 0.0000 0.0000
vt 0.7266 0.0000 0.0000
vt 0.7266 0.8906 0.0000
vt 0.7266 0.9453 0.0000
vt 0.4532 0.9453 0.0000
vt 0.7266 1.0000 0.0000
vt 0.4532 1.0000 0.0000
vt 0.5468 0.9453 0.0000
vt 0.2734 0.9453 0.0000
vt 0.2734 0.8906 0.0000
vt 0.5468 1.0000 0.0000
vt 0.2734 1.0000 0.0000
# 84 texture coords

g Box005
s 1
f 1/1/1 2/2/1 3/3/1 4/4/1 
f 5/4/2 6/1/2 7/2/2 8/3/2 
f 9/5/3 10/6/3 11/7/3 12/8/3 
f 13/9/4 14/10/4 15/11/4 16/12/4 
f 17/5/5 18/6/5 19/7/5 20/8/5 
f 21/9/6 22/10/6 23/11/6 24/12/6 
s 2
f 4/4/7 25/13/7 26/14/7 27/15/7 
f 27/15/7 26/14/7 28/16/8 29/17/8 
f 25/13/7 30/18/7 31/19/7 26/14/7 
f 26/14/7 31/19/7 32/20/7 28/16/8 
f 1/1/9 33/21/9 34/22/9 35/23/9 
f 35/23/9 34/22/9 36/24/9 37/25/9 
f 33/21/9 38/26/10 39/27/10 34/22/9 
f 34/22/9 39/27/10 40/28/9 36/24/9 
f 2/2/11 41/29/11 42/30/11 43/31/11 
f 43/31/11 42/30/11 44/32/12 45/33/12 
f 41/29/11 46/34/11 47/35/11 42/30/11 
f 42/30/11 47/35/11 48/36/11 44/32/12 
f 3/3/13 49/37/13 50/38/13 51/39/13 
f 51/39/13 50/38/13 52/40/13 53/41/13 
f 49/37/13 54/42/14 55/43/14 50/38/13 
f 50/38/13 55/43/14 56/44/13 52/40/13 
f 8/3/15 57/37/16 58/38/15 59/39/15 
f 59/39/15 58/38/15 60/40/15 61/41/15 
f 57/37/16 62/42/17 63/43/17 58/38/15 
f 58/38/15 63/43/17 64/44/16 60/40/15 
f 5/4/18 65/13/18 66/14/18 67/15/19 
f 67/15/19 66/14/18 68/16/20 69/17/20 
f 65/13/18 70/18/18 71/19/18 66/14/18 
f 66/14/18 71/19/18 72/20/18 68/16/20 
f 6/1/21 73/21/22 74/22/21 75/23/21 
f 75/23/21 74/22/21 76/24/21 77/25/21 
f 73/21/22 78/26/23 79/27/23 74/22/21 
f 74/22/21 79/27/23 80/28/22 76/24/21 
f 7/2/24 81/29/24 82/30/24 83/31/25 
f 83/31/25 82/30/24 84/32/26 85/33/26 
f 81/29/24 86/34/24 87/35/24 82/30/24 
f 82/30/24 87/35/24 88/36/24 84/32/26 
f 12/8/7 89/45/7 90/46/7 91/47/7 
f 91/47/7 90/46/7 31/40/7 30/41/7 
f 89/45/7 92/48/27 93/49/27 90/46/7 
f 90/46/7 93/49/27 32/44/7 31/40/7 
f 9/5/13 94/50/13 95/51/13 96/52/13 
f 96/52/13 95/51/13 97/53/28 98/54/28 
f 94/50/13 53/18/13 52/19/13 95/51/13 
f 95/51/13 52/19/13 56/20/13 97/53/28 
f 10/6/18 99/55/18 100/56/18 101/57/18 
f 101/57/18 100/56/18 71/24/18 70/25/18 
f 99/55/18 102/58/29 103/59/29 100/56/18 
f 100/56/18 103/59/29 72/28/18 71/24/18 
f 11/7/15 104/60/15 105/61/15 106/62/30 
f 106/62/30 105/61/15 107/63/31 108/64/30 
f 104/60/15 61/34/15 60/35/15 105/61/15 
f 105/61/15 60/35/15 64/36/16 107/63/31 
f 16/12/32 109/65/28 110/66/33 111/67/14 
f 111/67/14 110/66/33 55/68/14 54/69/14 
f 109/65/28 98/48/28 97/49/28 110/66/33 
f 110/66/33 97/49/28 56/44/13 55/68/14 
f 13/9/34 112/70/12 113/71/35 114/72/36 
f 114/72/36 113/71/35 115/53/36 116/54/36 
f 112/70/12 45/73/12 44/74/12 113/71/35 
f 113/71/35 44/74/12 48/20/11 115/53/36 
f 14/10/37 117/75/38 118/76/39 119/77/23 
f 119/77/23 118/76/39 79/78/23 78/79/23 
f 117/75/38 120/58/38 121/59/39 118/76/39 
f 118/76/39 121/59/39 80/28/22 79/78/23 
f 15/11/40 122/80/20 123/81/40 124/82/29 
f 124/82/29 123/81/40 103/63/29 102/64/29 
f 122/80/20 69/83/20 68/84/20 123/81/40 
f 123/81/40 68/84/20 72/36/18 103/63/29 
f 20/8/11 125/45/11 126/46/11 127/47/11 
f 127/47/11 126/46/11 47/40/11 46/41/11 
f 125/45/11 116/48/36 115/49/36 126/46/11 
f 126/46/11 115/49/36 48/44/11 47/40/11 
f 17/5/9 128/50/9 129/51/9 130/52/9 
f 130/52/9 129/51/9 131/53/41 132/54/41 
f 128/50/9 37/18/9 36/19/9 129/51/9 
f 129/51/9 36/19/9 40/20/9 131/53/41 
f 18/6/24 133/55/24 134/56/24 135/57/24 
f 135/57/24 134/56/24 87/24/24 86/25/24 
f 133/55/24 136/58/42 137/59/42 134/56/24 
f 134/56/24 137/59/42 88/28/24 87/24/24 
f 19/7/21 138/60/21 139/61/21 140/62/38 
f 140/62/38 139/61/21 121/63/39 120/64/38 
f 138/60/21 77/34/21 76/35/21 139/61/21 
f 139/61/21 76/35/21 80/36/22 121/63/39 
f 24/12/43 141/65/41 142/66/44 143/67/10 
f 143/67/10 142/66/44 39/68/10 38/69/10 
f 141/65/41 132/48/41 131/49/41 142/66/44 
f 142/66/44 131/49/41 40/44/9 39/68/10 
f 21/9/45 144/70/8 145/71/46 146/72/27 
f 146/72/27 145/71/46 93/53/27 92/54/27 
f 144/70/8 29/73/8 28/74/8 145/71/46 
f 145/71/46 28/74/8 32/20/7 93/53/27 
f 22/10/47 147/75/30 148/76/31 149/77/17 
f 149/77/17 148/76/31 63/78/17 62/79/17 
f 147/75/30 108/58/30 107/59/31 148/76/31 
f 148/76/31 107/59/31 64/28/16 63/78/17 
f 23/11/48 150/80/26 151/81/48 152/82/42 
f 152/82/42 151/81/48 137/63/42 136/64/42 
f 150/80/26 85/83/26 84/84/26 151/81/48 
f 151/81/48 84/84/26 88/36/24 137/63/42 
s 4
f 1/1/49 4/4/49 27/15/49 33/21/49 
f 33/21/49 27/15/49 29/17/49 38/26/49 
s 8
f 2/2/50 1/1/50 35/23/50 41/29/50 
f 41/29/50 35/23/50 37/25/50 46/34/50 
s 4
f 3/3/51 2/2/51 43/31/51 49/37/51 
f 49/37/51 43/31/51 45/33/51 54/42/51 
s 8
f 4/4/52 3/3/52 51/39/52 25/13/52 
f 25/13/52 51/39/52 53/41/52 30/18/52 
s 4
f 5/4/53 8/3/53 59/39/53 65/13/53 
f 65/13/53 59/39/53 61/41/53 70/18/53 
s 8
f 6/1/54 5/4/54 67/15/54 73/21/54 
f 73/21/54 67/15/54 69/17/54 78/26/54 
s 4
f 7/2/55 6/1/55 75/23/55 81/29/55 
f 81/29/55 75/23/55 77/25/55 86/34/55 
s 8
f 8/3/56 7/2/56 83/31/56 57/37/56 
f 57/37/56 83/31/56 85/33/56 62/42/56 
f 9/5/52 12/8/52 91/47/52 94/50/52 
f 94/50/52 91/47/52 30/41/52 53/18/52 
s 16
f 10/6/57 9/5/57 96/52/57 99/55/57 
f 99/55/57 96/52/57 98/54/57 102/58/57 
s 4
f 11/7/53 10/6/53 101/57/53 104/60/53 
f 104/60/53 101/57/53 70/25/53 61/34/53 
s 16
f 12/8/58 11/7/58 106/62/58 89/45/58 
f 89/45/58 106/62/58 108/64/58 92/48/58 
s 4
f 13/9/51 16/12/51 111/67/51 112/70/51 
f 112/70/51 111/67/51 54/69/51 45/73/51 
s 16
f 14/10/59 13/9/59 114/72/59 117/75/59 
f 117/75/59 114/72/59 116/54/59 120/58/59 
s 8
f 15/11/54 14/10/54 119/77/54 122/80/54 
f 122/80/54 119/77/54 78/79/54 69/83/54 
s 16
f 16/12/57 15/11/57 124/82/57 109/65/57 
f 109/65/57 124/82/57 102/64/57 98/48/57 
s 8
f 17/5/50 20/8/50 127/47/50 128/50/50 
f 128/50/50 127/47/50 46/41/50 37/18/50 
s 16
f 18/6/60 17/5/60 130/52/60 133/55/60 
f 133/55/60 130/52/60 132/54/60 136/58/60 
s 4
f 19/7/55 18/6/55 135/57/55 138/60/55 
f 138/60/55 135/57/55 86/25/55 77/34/55 
s 16
f 20/8/59 19/7/59 140/62/59 125/45/59 
f 125/45/59 140/62/59 120/64/59 116/48/59 
s 4
f 21/9/49 24/12/49 143/67/49 144/70/49 
f 144/70/49 143/67/49 38/69/49 29/73/49 
s 16
f 22/10/58 21/9/58 146/72/58 147/75/58 
f 147/75/58 146/72/58 92/54/58 108/58/58 
s 8
f 23/11/56 22/10/56 149/77/56 150/80/56 
f 150/80/56 149/77/56 62/79/56 85/83/56 
s 16
f 24/12/60 23/11/60 152/82/60 141/65/60 
f 141/65/60 152/82/60 136/64/60 132/48/60 
# 150 polygons

